<svg width="89" height="89" viewBox="0 0 89 89" fill="none" xmlns="http://www.w3.org/2000/svg">
<path opacity="0.5" d="M41.6704 88.1747L14.6767 37.1624C14.5603 36.9249 14.7388 36.6501 14.9953 36.6494L29.4648 36.61L42.9859 62.1801C43.1022 62.4176 43.4319 62.4167 43.572 62.1785L59.6493 36.5279L74.0455 36.4887C74.302 36.488 74.4531 36.762 74.313 37.0001L42.2565 88.1731C42.099 88.3931 41.7693 88.394 41.6704 88.1747Z" fill="#71FF2F"/>
<path opacity="0.5" d="M29.4655 36.61L22.4686 23.4231C22.3522 23.1857 22.5308 22.9108 22.7872 22.9101L67.6803 22.7697C67.9367 22.769 68.0878 23.043 67.9477 23.2811L59.65 36.5279L29.4655 36.61Z" fill="#71FF2F"/>
<path d="M42.9872 62.1796L29.4661 36.6094L59.6506 36.5273L43.5733 62.178C43.4332 62.4161 43.1035 62.417 42.9872 62.1796Z" fill="#71FF2F"/>
</svg>
